<svg version="1.1" id="Layer_1" xmlns="http://www.w3.org/2000/svg" xmlns:xlink="http://www.w3.org/1999/xlink" x="0px" y="0px"
	 width="100%" viewBox="0 0 1012 1110" enable-background="new 0 0 1012 1110" xml:space="preserve">
<path fill="#FFFFFF" opacity="1.000000" stroke="none" 
	d="
M1.000000,1079.000000 
	C1.000000,719.745605 1.000000,360.491180 1.000000,1.000000 
	C272.694641,1.000000 544.389404,1.000000 816.346436,1.363038 
	C809.894287,3.082418 803.102478,4.139368 796.478638,5.847446 
	C769.193420,12.883442 750.303284,30.296732 737.145508,54.569832 
	C726.366455,74.454796 723.012878,96.331421 721.156006,118.382835 
	C719.712585,135.524170 719.341553,152.778000 719.068054,169.990967 
	C718.507874,205.256348 718.606628,240.533401 717.891541,275.794647 
	C717.499695,295.116577 716.150513,314.425446 714.945740,333.722229 
	C714.238586,345.048004 713.272949,356.376587 711.870483,367.635010 
	C710.232544,380.783752 708.078857,393.871307 705.989502,406.959930 
	C703.669861,421.491791 701.405029,436.039124 698.681396,450.497803 
	C696.083862,464.286774 692.999573,477.986298 689.999573,491.696808 
	C684.210327,518.155457 678.424622,544.615601 672.455200,571.033936 
	C668.141174,590.126221 663.129272,609.068237 659.153564,628.227722 
	C653.712219,654.450684 648.335571,680.716431 644.094055,707.150391 
	C640.252563,731.091431 637.235046,755.223083 635.276794,779.385986 
	C634.103210,793.867188 635.679565,808.569092 635.984314,823.172607 
	C636.335510,840.003479 639.500610,856.400513 644.100891,872.497009 
	C647.727844,885.187805 650.860962,898.226562 656.338074,910.133423 
	C664.578369,928.047485 677.106018,943.054749 692.265930,955.971924 
	C708.029602,969.403564 725.302734,980.053284 744.322144,988.112671 
	C767.110840,997.769409 790.996460,1002.572937 815.554016,1002.741943 
	C829.614319,1002.838684 843.893372,1001.410400 857.722900,998.805054 
	C891.869507,992.372070 921.127380,976.734558 944.358337,950.277283 
	C959.624695,932.890564 970.432678,913.169800 978.230225,891.535950 
	C987.130737,866.841797 989.899048,841.146179 990.870361,815.211487 
	C991.303833,803.636902 990.380188,792.008179 989.982727,780.407043 
	C989.739258,773.300598 989.385437,766.196472 988.965454,759.098145 
	C988.722473,754.990601 988.346985,750.885193 987.862061,746.798828 
	C986.625488,736.380127 985.256653,725.977173 984.011841,715.559448 
	C982.901672,706.268372 981.999939,696.951294 980.801147,687.672241 
	C979.311584,676.142334 977.437622,664.660583 976.048035,653.119751 
	C974.496826,640.237061 973.274170,627.314209 971.960388,614.403564 
	C970.280273,597.891479 968.418579,581.393005 967.076538,564.852905 
	C966.034363,552.009705 965.537903,539.116699 965.038879,526.236511 
	C964.537903,513.306396 964.123596,500.366211 964.035950,487.427979 
	C963.622131,426.327271 963.382202,365.225403 962.965881,304.124725 
	C962.860718,288.686676 962.450378,273.247864 961.970215,257.815979 
	C961.439758,240.771530 960.751343,223.730774 959.971130,206.695786 
	C959.465088,195.648254 958.763428,184.607407 957.982605,173.575363 
	C957.087158,160.925262 956.249207,148.263290 954.948608,135.651596 
	C953.182068,118.521362 951.814819,101.288063 948.783875,84.366280 
	C945.261597,64.701096 936.750610,46.901005 922.732300,32.381355 
	C908.794434,17.945044 891.033508,10.029724 871.898804,5.054197 
	C865.356812,3.353095 858.638000,2.331848 852.000000,0.999994 
	C905.648193,1.000000 959.296387,1.000000 1013.000000,1.000000 
	C1013.000000,350.028046 1013.000000,699.056091 1012.606445,1048.361572 
	C1012.212830,1045.190552 1012.212830,1041.742065 1012.212830,1037.907959 
	C1008.276367,1038.322876 1005.059998,1038.984009 1001.851624,1038.947388 
	C981.757568,1038.718140 961.666260,1038.263550 941.572388,1038.016113 
	C909.647156,1037.622803 877.720398,1037.357910 845.794800,1036.992310 
	C820.034973,1036.697266 794.276184,1036.315186 768.516479,1036.005127 
	C739.090759,1035.650879 709.665283,1035.205322 680.238403,1035.036255 
	C651.239807,1034.869873 622.239502,1034.976318 593.240173,1035.042114 
	C590.751831,1035.047729 588.743286,1034.926758 588.029907,1032.023071 
	C584.711670,1018.517151 580.726257,1005.139526 578.155518,991.494446 
	C574.842773,973.910706 572.181091,956.170654 570.110413,938.396362 
	C568.153687,921.600525 566.459412,904.685303 566.223694,887.800659 
	C565.942078,867.628113 567.227661,847.427917 568.042542,827.248169 
	C568.467712,816.720520 568.945251,806.167236 570.105225,795.703857 
	C571.721863,781.120544 573.868530,766.590942 576.028931,752.074158 
	C578.567383,735.017456 580.903870,717.910645 584.158447,700.985291 
	C588.715942,677.283997 593.767395,653.668274 599.105591,630.128906 
	C605.904175,600.149414 613.177734,570.277405 620.289734,540.369385 
	C625.154846,519.910339 630.247559,499.504242 634.953918,479.009094 
	C639.158142,460.700592 643.154968,442.339722 646.903198,423.932678 
	C650.173889,407.870605 653.317017,391.766876 655.877502,375.580444 
	C658.349915,359.950562 660.146423,344.207886 661.980591,328.484528 
	C663.820312,312.713257 665.781555,296.934906 666.867371,281.103271 
	C667.830994,267.053589 667.929993,252.926498 667.926758,238.833694 
	C667.923462,224.407425 667.956665,209.932495 666.833801,195.567978 
	C665.549194,179.135132 663.431763,162.734390 660.889221,146.442535 
	C658.541382,131.398056 655.832520,116.341171 652.044800,101.608002 
	C647.587708,84.271393 642.249207,67.122574 636.439758,50.184971 
	C631.940002,37.065796 626.186279,24.372295 620.817627,11.561784 
	C620.219971,10.135643 618.628174,8.385760 617.266724,8.156719 
	C612.912048,7.424100 608.444946,7.012436 604.028442,7.066558 
	C594.432861,7.184149 584.843994,7.816467 575.248169,7.960826 
	C564.084229,8.128777 552.915833,7.990152 541.749329,8.014156 
	C540.529175,8.016779 539.309387,8.214364 537.764160,8.350090 
	C538.133728,9.588593 538.257996,10.391747 538.598267,11.089553 
	C550.663696,35.829456 561.110535,61.247684 568.798828,87.669868 
	C576.828003,115.263283 583.380676,143.231201 585.993164,171.959274 
	C587.390137,187.320724 589.539856,202.677490 589.813477,218.063690 
	C590.337402,247.526352 590.815552,277.031433 587.063904,306.400665 
	C585.362793,319.717255 584.806641,333.188873 582.869080,346.464355 
	C579.982422,366.243652 576.669373,385.975861 572.922119,405.610626 
	C568.213379,430.283478 563.171692,454.901672 557.735291,479.424103 
	C552.869690,501.371796 547.273499,523.157532 541.999756,545.014771 
	C535.018799,573.947327 527.924866,602.853333 521.105652,631.823975 
	C517.802979,645.854736 514.868225,659.977295 512.034241,674.111877 
	C508.812469,690.180664 505.775238,706.288757 502.871399,722.418152 
	C500.423187,736.016724 497.982819,749.629028 496.089874,763.311523 
	C494.341339,775.950012 493.108429,788.671631 492.037415,801.389343 
	C490.505859,819.575745 488.844635,837.773865 488.161865,856.001526 
	C487.666351,869.230103 488.319305,882.534790 489.086761,895.769165 
	C490.056335,912.489380 491.044830,929.251465 493.161743,945.850525 
	C495.441498,963.726318 498.025665,981.679504 502.267334,999.164612 
	C511.090240,1035.534424 523.749878,1070.633179 540.507141,1104.197388 
	C542.305176,1107.798828 544.176453,1109.113037 548.253784,1109.101929 
	C603.752441,1108.950439 659.251770,1108.944702 714.750488,1109.087280 
	C720.168640,1109.101074 725.583557,1110.333374 731.000000,1111.000000 
	C489.165375,1111.000000 247.330750,1111.001709 5.496132,1110.958618 
	C3.997365,1110.958374 2.498708,1110.333374 1.462814,1109.500000 
	C26.235168,1108.506836 50.544708,1108.013672 74.668098,1107.524292 
	C74.099915,1099.920166 73.386780,1092.572632 73.034210,1085.207886 
	C72.259506,1069.024902 71.423401,1052.838623 71.057320,1036.643677 
	C70.505257,1012.221558 70.162102,987.791382 70.068481,963.363342 
	C70.017670,950.104126 70.642754,936.841614 71.007500,923.581787 
	C71.303520,912.820129 71.646645,902.059570 72.003113,891.299622 
	C72.655373,871.611023 73.253433,851.920166 74.027794,832.236267 
	C74.546844,819.042297 75.304054,805.857361 76.004425,792.670959 
	C76.634171,780.814209 77.303314,768.959290 78.007812,757.106750 
	C78.633331,746.583008 79.299332,736.061462 80.005112,725.542786 
	C80.974686,711.092407 81.972527,696.643860 83.006836,682.198059 
	C83.969872,668.747559 84.975090,655.299927 86.000580,641.854065 
	C87.313103,624.644531 88.652260,607.437012 90.003334,590.230469 
	C90.980858,577.781311 92.005905,565.335876 92.992340,552.887451 
	C94.005035,540.107544 95.002098,527.326416 95.995819,514.545044 
	C97.002441,501.597870 98.011154,488.650818 98.992241,475.701691 
	C100.011017,462.255096 101.031883,448.808502 101.989418,435.357483 
	C103.029602,420.745209 104.037209,406.130402 104.986977,391.512024 
	C106.033806,375.399597 107.036537,359.284058 107.987022,343.165680 
	C108.715347,330.814453 109.394371,318.459595 109.983673,306.101074 
	C110.715698,290.749329 111.373344,275.393707 111.985115,260.036652 
	C112.393745,249.778946 112.809921,239.518066 112.971916,229.254654 
	C113.389038,202.828888 113.663567,176.400864 114.009583,149.973938 
	C114.026123,148.710983 114.181801,147.449860 114.272675,146.187897 
	C115.921783,147.118591 116.854080,148.363586 116.933769,149.660919 
	C117.399689,157.246902 117.710068,164.843506 117.988953,172.439621 
	C118.365623,182.698746 118.989334,192.962067 118.944283,203.221115 
	C118.736702,250.481735 118.386040,297.741943 117.968185,345.001282 
	C117.845024,358.930450 117.373764,372.857330 116.985847,386.783112 
	C116.727821,396.045929 116.343079,405.305298 116.000183,414.565674 
	C115.339035,432.420715 114.700653,450.276672 113.989967,468.129791 
	C113.372017,483.653229 112.667641,499.173248 112.001038,514.694763 
	C111.334427,530.216309 110.656013,545.737305 110.003494,561.259460 
	C109.323006,577.447083 108.612190,593.633667 108.014839,609.824402 
	C107.288528,629.510315 106.635735,649.199097 106.011406,668.888550 
	C105.617416,681.313965 105.008789,693.744141 105.057678,706.169983 
	C105.251488,755.430542 105.525543,804.691895 106.074852,853.949463 
	C106.270302,871.476196 107.277298,888.995605 108.017632,906.513977 
	C108.596245,920.205566 109.306221,933.891968 110.018654,947.577515 
	C110.266731,952.342712 110.593422,957.108704 111.064041,961.856567 
	C112.324028,974.567993 113.696060,987.268311 114.994255,999.976074 
	C115.710777,1006.989929 116.150406,1014.039551 117.099037,1021.020813 
	C118.920059,1034.422119 120.983047,1047.791138 123.004158,1061.164795 
	C125.356422,1076.729736 127.771400,1092.285278 130.132019,1107.667969 
	C152.065277,1107.667969 173.471725,1107.667969 195.066422,1107.667969 
	C193.997269,1099.556885 192.959152,1091.797852 191.954315,1084.034546 
	C189.627869,1066.060669 187.132965,1048.105835 185.066437,1030.101929 
	C183.718811,1018.361328 182.813705,1006.560425 182.053772,994.764404 
	C181.172821,981.089905 180.019684,967.385986 180.130341,953.704102 
	C180.387970,921.846252 181.124527,889.987671 182.096222,858.142395 
	C182.517242,844.344116 183.722397,830.551208 185.064362,816.804016 
	C186.780258,799.226135 188.791824,781.670776 191.053101,764.154358 
	C193.118256,748.157166 195.221237,732.139038 198.147552,716.285217 
	C202.002914,695.398193 206.226685,674.555603 211.115387,653.888672 
	C217.409637,627.279907 224.408203,600.835083 231.311768,574.373962 
	C237.394974,551.057129 243.948502,527.862366 249.952423,504.525757 
	C255.195312,484.147186 260.226868,463.705902 264.859009,443.181091 
	C268.929474,425.145050 272.382111,406.967834 275.983215,388.828278 
	C278.417877,376.564545 280.828125,364.290070 282.896606,351.961212 
	C284.838409,340.387695 286.460022,328.754761 287.954803,317.113586 
	C289.184875,307.533875 290.097626,297.911011 291.016754,288.294403 
	C292.405792,273.761261 293.773987,259.224884 294.967255,244.674789 
	C295.801636,234.500534 296.755554,224.307312 296.903900,214.111618 
	C297.204529,193.449692 297.001465,172.780319 296.968811,152.114090 
	C296.967590,151.326981 296.411346,150.542862 296.400269,149.753326 
	C296.340698,145.525879 296.372131,141.297150 296.372131,137.068863 
	C296.881500,137.057190 297.390869,137.045517 297.900269,137.033829 
	C298.598969,142.122528 299.546661,147.191635 299.948975,152.303665 
	C301.085266,166.741211 302.195801,181.186218 302.937866,195.647720 
	C303.566193,207.893295 303.846893,220.164719 303.930695,232.427109 
	C303.979126,239.518600 303.221649,246.611710 303.023132,253.709579 
	C302.605743,268.634552 302.706085,283.585083 301.865448,298.484009 
	C301.052795,312.886780 299.356201,327.240845 297.989594,341.610718 
	C297.027740,351.724945 296.233185,361.865295 294.885681,371.929993 
	C293.178986,384.677155 291.017456,397.364197 288.997223,410.068451 
	C286.339203,426.783539 283.941833,443.548615 280.847687,460.183411 
	C277.973145,475.637512 274.386017,490.960907 271.013275,506.320038 
	C266.461273,527.049377 261.848511,547.765564 257.197083,568.472839 
	C253.504730,584.910583 249.565460,601.294128 246.010834,617.761108 
	C242.451385,634.250305 239.190216,650.804626 235.880783,667.346924 
	C233.842438,677.535583 231.663559,687.709595 230.079971,697.972290 
	C228.088898,710.875916 226.596832,723.857788 224.972076,736.816223 
	C223.264175,750.437866 221.386871,764.046143 220.075256,777.707458 
	C218.739182,791.623413 217.831787,805.587280 217.056595,819.548035 
	C216.450668,830.460266 216.036789,841.400696 216.071732,852.326843 
	C216.120529,867.588379 216.630112,882.849243 217.012421,898.108643 
	C217.282059,908.870911 217.609467,919.632507 218.028351,930.389893 
	C218.213943,935.156311 218.521484,939.930725 219.065079,944.668030 
	C220.630051,958.306824 222.230331,971.943420 224.029694,985.552795 
	C225.910278,999.776367 227.289413,1014.123779 230.220856,1028.138306 
	C235.624161,1053.970337 242.134354,1079.569458 247.822769,1105.345215 
	C248.611328,1108.918457 250.212601,1109.026367 252.875885,1109.018677 
	C266.708862,1108.978394 280.541992,1109.000000 294.375092,1109.000000 
	C303.513611,1109.000000 312.652130,1109.000000 321.838623,1109.000000 
	C321.838623,1107.941162 321.991943,1107.244385 321.816437,1106.643677 
	C315.696899,1085.697632 309.045380,1064.890625 303.567566,1043.778931 
	C299.580383,1028.412109 296.758514,1012.708252 294.129822,997.035095 
	C292.157654,985.276428 291.098511,973.347473 290.028534,961.458740 
	C288.496490,944.436340 286.582977,927.399658 286.163788,910.336365 
	C285.427490,880.364014 285.955780,850.381470 288.946625,820.490051 
	C289.945892,810.502930 290.035614,800.422546 291.106140,790.445435 
	C292.428894,778.117676 294.340881,765.853149 295.997742,753.561218 
	C297.697937,740.947327 299.103058,728.284973 301.166840,715.730835 
	C304.197571,697.294556 307.612946,678.919617 311.025360,660.548462 
	C314.019440,644.429382 317.109497,628.325928 320.384369,612.261902 
	C324.465546,592.242859 328.870728,572.289917 332.967102,552.273865 
	C336.838745,533.355652 340.487427,514.391785 344.241943,495.449615 
	C348.154236,475.711243 352.384369,456.029572 355.905243,436.221741 
	C359.323486,416.990936 362.111786,397.645538 365.001648,378.324249 
	C367.462128,361.873566 369.955475,345.419006 371.910767,328.904175 
	C373.646271,314.245483 374.925385,299.519409 375.921814,284.790283 
	C376.925201,269.958160 377.926910,255.082809 377.856720,240.231461 
	C377.758179,219.374115 376.880341,198.511734 375.922089,177.670517 
	C375.371948,165.704346 374.440155,153.719254 372.901428,141.843582 
	C370.642487,124.408813 367.842224,107.038780 364.992126,89.687241 
	C360.418610,61.843609 352.152802,34.957737 343.410614,7.608089 
	C306.285156,7.608089 269.187683,7.608089 232.184448,7.608089 
	C234.146835,20.574131 236.377747,33.248249 237.917725,46.005772 
	C239.900452,62.431328 241.764099,78.894371 242.878616,95.395332 
	C244.070923,113.047981 244.761215,130.760437 244.887848,148.452393 
	C245.035217,169.042816 244.387909,189.640396 243.976151,210.232712 
	C243.780899,219.996185 243.387695,229.756927 242.974533,239.514282 
	C242.758636,244.613403 242.419250,249.713303 241.937134,254.794006 
	C240.683350,268.006866 239.296768,281.207062 238.008942,294.416779 
	C237.276505,301.929504 236.825623,309.474457 235.907440,316.963135 
	C234.418564,329.106323 232.659363,341.216461 230.996170,353.338104 
	C229.621277,363.358459 228.366837,373.398407 226.791672,383.387512 
	C225.019089,394.628296 222.874008,405.809753 221.022156,417.038696 
	C218.268204,433.737701 215.806915,450.486816 212.890045,467.156647 
	C210.148239,482.825989 206.931427,498.411621 204.008194,514.049927 
	C201.261917,528.741516 198.748795,543.477478 195.910782,558.150940 
	C192.398483,576.310730 188.424393,594.383240 185.075058,612.571838 
	C181.129883,633.996033 177.615097,655.499817 173.959763,676.976990 
	C169.948380,700.545898 165.728073,724.083679 162.098267,747.711731 
	C159.618881,763.851074 157.958847,780.117493 155.999374,796.335144 
	C153.959656,813.217041 151.803314,830.088501 150.069778,847.002625 
	C148.746140,859.917480 147.607666,872.875793 147.086182,885.842896 
	C146.120605,909.852295 145.662079,933.882080 145.008011,957.903809 
	C144.947830,960.113831 145.000000,962.326965 145.000000,964.538635 
	C143.762894,963.856689 143.119675,963.065369 143.051270,962.227173 
	C142.315582,953.211853 141.577255,944.194824 141.023422,935.166992 
	C140.265823,922.817749 139.557419,910.463318 139.032822,898.102478 
	C138.548141,886.681519 138.024979,875.247864 138.070099,863.822021 
	C138.143524,845.227112 138.636749,826.633301 139.008942,808.040222 
	C139.294449,793.778625 139.626480,779.517639 140.013992,765.258484 
	C140.274765,755.662476 140.619537,746.067993 141.021194,736.476746 
	C141.255630,730.878479 141.596939,725.281860 142.027481,719.695129 
	C143.315399,702.983643 144.659805,686.276428 146.004959,669.569397 
	C146.650833,661.547485 147.212646,653.515503 148.054581,645.513550 
	C149.252396,634.129028 150.791916,622.780212 151.964981,611.393372 
	C153.125122,600.132080 153.788452,588.817017 155.071762,577.571472 
	C156.849258,561.995239 159.128662,546.476685 160.956177,530.905640 
	C162.483261,517.894104 163.627243,504.838074 165.018219,491.810028 
	C166.634232,476.674347 168.540253,461.566650 169.937881,446.411499 
	C171.221802,432.489410 172.191467,418.530945 172.946548,404.569366 
	C173.830444,388.226257 174.885513,371.862610 174.889526,355.507629 
	C174.899078,316.580841 174.381470,277.653381 173.965302,238.727402 
	C173.864487,229.297531 173.376633,219.870361 172.980820,210.445557 
	C172.731735,204.514526 172.431824,198.581573 171.964508,192.664520 
	C170.697174,176.618332 169.339066,160.579239 167.995331,144.539169 
	C167.337326,136.684692 166.811005,128.813461 165.906448,120.986641 
	C164.406570,108.008545 162.596756,95.066605 161.016266,82.097397 
	C159.591919,70.409523 158.528778,58.673328 156.889175,47.017117 
	C155.031509,33.810455 152.709488,20.669106 150.639420,7.810344 
	C113.876083,7.810344 77.066368,7.810344 40.523392,7.810344 
	C39.978455,15.869876 39.370895,23.097336 39.029594,30.337349 
	C38.577583,39.925812 38.339443,49.524292 37.999302,59.118111 
	C37.336727,77.806381 36.662506,96.494255 36.001751,115.182594 
	C35.329224,134.203842 34.669827,153.225555 33.999241,172.246872 
	C33.672745,181.507858 33.326893,190.768143 33.002480,200.029190 
	C32.660568,209.789627 32.340370,219.550797 31.998461,229.311234 
	C31.674044,238.572281 31.328190,247.832565 31.001698,257.093536 
	C30.331106,276.114868 29.669889,295.136536 28.999300,314.157867 
	C28.672808,323.418823 28.324682,332.679016 28.003149,341.940186 
	C27.658499,351.867188 27.344328,361.795227 26.996916,371.722137 
	C26.678633,380.816742 26.324348,389.910065 26.003145,399.004578 
	C25.658424,408.764923 25.340384,418.526184 24.998474,428.286621 
	C24.674059,437.547668 24.326399,446.807861 24.002090,456.068939 
	C23.330153,475.256897 22.672232,494.445343 21.997808,513.633240 
	C21.678152,522.727722 21.322628,531.821045 21.002968,540.915527 
	C20.328547,560.103394 19.672346,579.291931 18.997923,598.479797 
	C18.678263,607.574280 18.320944,616.667603 18.003445,625.762207 
	C17.327766,645.116699 16.671228,664.471741 15.998212,683.826355 
	C15.676176,693.087463 15.327507,702.347656 15.003149,711.608704 
	C14.331112,730.796631 13.670733,749.985046 12.998542,769.172974 
	C12.674105,778.434021 12.326433,787.694214 12.002152,796.955261 
	C11.330281,816.143188 10.672315,835.331665 9.997894,854.519531 
	C9.678236,863.614014 9.320914,872.707336 9.003418,881.801941 
	C8.327745,901.156433 7.674653,920.511597 6.996637,939.866028 
	C6.683868,948.794189 6.314126,957.720276 6.005553,966.648499 
	C5.325138,986.336182 4.581368,1006.022217 4.026534,1025.713501 
	C3.563770,1042.137085 3.378168,1058.568481 2.916799,1074.992188 
	C2.878792,1076.345093 1.666613,1077.664795 1.000000,1079.000000 
M368.066315,1098.300903 
	C368.698792,1099.793213 369.640686,1101.232300 369.907928,1102.787476 
	C370.847534,1108.255371 374.034241,1109.207764 379.236145,1109.143188 
	C404.728394,1108.827271 430.226715,1109.004517 455.722870,1108.989990 
	C457.442078,1108.989014 459.161194,1108.844727 461.059631,1108.758911 
	C457.206573,1099.737915 453.535156,1091.278442 449.972046,1082.773560 
	C440.442047,1060.026245 432.466003,1036.704712 427.167053,1012.647766 
	C422.659760,992.185059 419.171936,971.461304 416.154602,950.718994 
	C413.984131,935.798279 412.305817,920.662354 412.225861,905.612793 
	C412.084930,879.096680 413.128967,852.565613 414.099274,826.056274 
	C414.488617,815.419434 415.685181,804.783325 417.059479,794.217773 
	C419.478638,775.619507 421.899780,757.003845 425.086121,738.527527 
	C428.977966,715.960388 433.228363,693.435425 438.106537,671.062927 
	C444.426239,642.079285 451.400818,613.235962 458.305389,584.382935 
	C468.791687,540.562744 479.884430,496.882904 489.903107,452.957184 
	C496.653076,423.362793 502.509064,393.538025 507.789856,363.644073 
	C511.395172,343.235016 513.673767,322.566803 515.875549,301.942902 
	C517.482544,286.889984 518.572510,271.731018 518.848633,256.600250 
	C519.166321,239.185654 518.732178,221.730728 517.885437,204.329285 
	C517.095459,188.094986 515.638062,171.875443 513.901733,155.710922 
	C512.667419,144.219284 510.949615,132.732651 508.598602,121.420227 
	C505.897919,108.425270 502.362030,95.598495 499.008453,82.745758 
	C492.611572,58.229313 483.566589,34.665230 473.308350,11.529145 
	C472.006653,8.593343 470.406952,7.916100 467.415497,7.930480 
	C442.086548,8.052238 416.756775,7.996037 391.427246,8.010636 
	C390.018311,8.011449 388.609467,8.165967 387.419739,8.236034 
	C392.249023,23.140682 397.677460,37.559853 401.546570,52.385956 
	C407.275574,74.338943 412.666199,96.439819 416.756653,118.742615 
	C420.230408,137.682846 422.088074,156.958527 423.856262,176.159882 
	C425.218353,190.951859 425.596893,205.853409 425.902740,220.716721 
	C426.093048,229.966980 425.355957,239.237671 424.995117,248.497620 
	C424.344818,265.186981 423.699829,281.876709 422.971588,298.562744 
	C422.792572,302.664124 422.419495,306.766022 421.931519,310.843292 
	C420.338806,324.151093 418.690094,337.452576 416.989960,350.747131 
	C415.353424,363.544678 413.917725,376.377716 411.861237,389.109161 
	C409.555023,403.386719 406.655731,417.568634 404.006439,431.790649 
	C400.910889,448.408203 398.038940,465.071808 394.645569,481.628387 
	C390.672241,501.014496 386.149567,520.287292 382.033813,539.645081 
	C377.510590,560.919128 373.110138,582.219971 368.782654,603.534790 
	C363.774780,628.200745 358.559967,652.832275 354.072205,677.594238 
	C349.630646,702.101257 345.724213,726.713806 342.071930,751.352539 
	C339.316437,769.941406 336.954895,788.607605 335.119598,807.308167 
	C333.559509,823.204346 332.192932,839.198486 332.183990,855.150024 
	C332.169434,881.170288 332.763855,907.222290 334.187653,933.201416 
	C335.189362,951.479065 337.486267,969.732178 340.142883,987.858765 
	C342.543701,1004.239990 345.366974,1020.656616 349.541931,1036.656250 
	C354.889038,1057.147705 361.776367,1077.237061 368.066315,1098.300903 
z"/>
<path fill="#BA2127" opacity="1.000000" stroke="none" 
	d="
M1.000000,1079.333252 
	C1.666613,1077.664795 2.878792,1076.345093 2.916799,1074.992188 
	C3.378168,1058.568481 3.563770,1042.137085 4.026534,1025.713501 
	C4.581368,1006.022217 5.325138,986.336182 6.005553,966.648499 
	C6.314126,957.720276 6.683868,948.794189 6.996637,939.866028 
	C7.674653,920.511597 8.327745,901.156433 9.003418,881.801941 
	C9.320914,872.707336 9.678236,863.614014 9.997894,854.519531 
	C10.672315,835.331665 11.330281,816.143188 12.002152,796.955261 
	C12.326433,787.694214 12.674105,778.434021 12.998542,769.172974 
	C13.670733,749.985046 14.331112,730.796631 15.003149,711.608704 
	C15.327507,702.347656 15.676176,693.087463 15.998212,683.826355 
	C16.671228,664.471741 17.327766,645.116699 18.003445,625.762207 
	C18.320944,616.667603 18.678263,607.574280 18.997923,598.479797 
	C19.672346,579.291931 20.328547,560.103394 21.002968,540.915527 
	C21.322628,531.821045 21.678152,522.727722 21.997808,513.633240 
	C22.672232,494.445343 23.330153,475.256897 24.002090,456.068939 
	C24.326399,446.807861 24.674059,437.547668 24.998474,428.286621 
	C25.340384,418.526184 25.658424,408.764923 26.003145,399.004578 
	C26.324348,389.910065 26.678633,380.816742 26.996916,371.722137 
	C27.344328,361.795227 27.658499,351.867188 28.003149,341.940186 
	C28.324682,332.679016 28.672808,323.418823 28.999300,314.157867 
	C29.669889,295.136536 30.331106,276.114868 31.001698,257.093536 
	C31.328190,247.832565 31.674044,238.572281 31.998461,229.311234 
	C32.340370,219.550797 32.660568,209.789627 33.002480,200.029190 
	C33.326893,190.768143 33.672745,181.507858 33.999241,172.246872 
	C34.669827,153.225555 35.329224,134.203842 36.001751,115.182594 
	C36.662506,96.494255 37.336727,77.806381 37.999302,59.118111 
	C38.339443,49.524292 38.577583,39.925812 39.029594,30.337349 
	C39.370895,23.097336 39.978455,15.869876 40.523392,7.810344 
	C77.066368,7.810344 113.876083,7.810344 150.639420,7.810344 
	C152.709488,20.669106 155.031509,33.810455 156.889175,47.017117 
	C158.528778,58.673328 159.591919,70.409523 161.016266,82.097397 
	C162.596756,95.066605 164.406570,108.008545 165.906448,120.986641 
	C166.811005,128.813461 167.337326,136.684692 167.995331,144.539169 
	C169.339066,160.579239 170.697174,176.618332 171.964508,192.664520 
	C172.431824,198.581573 172.731735,204.514526 172.980820,210.445557 
	C173.376633,219.870361 173.864487,229.297531 173.965302,238.727402 
	C174.381470,277.653381 174.899078,316.580841 174.889526,355.507629 
	C174.885513,371.862610 173.830444,388.226257 172.946548,404.569366 
	C172.191467,418.530945 171.221802,432.489410 169.937881,446.411499 
	C168.540253,461.566650 166.634232,476.674347 165.018219,491.810028 
	C163.627243,504.838074 162.483261,517.894104 160.956177,530.905640 
	C159.128662,546.476685 156.849258,561.995239 155.071762,577.571472 
	C153.788452,588.817017 153.125122,600.132080 151.964981,611.393372 
	C150.791916,622.780212 149.252396,634.129028 148.054581,645.513550 
	C147.212646,653.515503 146.650833,661.547485 146.004959,669.569397 
	C144.659805,686.276428 143.315399,702.983643 142.027481,719.695129 
	C141.596939,725.281860 141.255630,730.878479 141.021194,736.476746 
	C140.619537,746.067993 140.274765,755.662476 140.013992,765.258484 
	C139.626480,779.517639 139.294449,793.778625 139.008942,808.040222 
	C138.636749,826.633301 138.143524,845.227112 138.070099,863.822021 
	C138.024979,875.247864 138.548141,886.681519 139.032822,898.102478 
	C139.557419,910.463318 140.265823,922.817749 141.023422,935.166992 
	C141.577255,944.194824 142.315582,953.211853 143.051270,962.227173 
	C143.119675,963.065369 143.762894,963.856689 145.000000,964.538635 
	C145.000000,962.326965 144.947830,960.113831 145.008011,957.903809 
	C145.662079,933.882080 146.120605,909.852295 147.086182,885.842896 
	C147.607666,872.875793 148.746140,859.917480 150.069778,847.002625 
	C151.803314,830.088501 153.959656,813.217041 155.999374,796.335144 
	C157.958847,780.117493 159.618881,763.851074 162.098267,747.711731 
	C165.728073,724.083679 169.948380,700.545898 173.959763,676.976990 
	C177.615097,655.499817 181.129883,633.996033 185.075058,612.571838 
	C188.424393,594.383240 192.398483,576.310730 195.910782,558.150940 
	C198.748795,543.477478 201.261917,528.741516 204.008194,514.049927 
	C206.931427,498.411621 210.148239,482.825989 212.890045,467.156647 
	C215.806915,450.486816 218.268204,433.737701 221.022156,417.038696 
	C222.874008,405.809753 225.019089,394.628296 226.791672,383.387512 
	C228.366837,373.398407 229.621277,363.358459 230.996170,353.338104 
	C232.659363,341.216461 234.418564,329.106323 235.907440,316.963135 
	C236.825623,309.474457 237.276505,301.929504 238.008942,294.416779 
	C239.296768,281.207062 240.683350,268.006866 241.937134,254.794006 
	C242.419250,249.713303 242.758636,244.613403 242.974533,239.514282 
	C243.387695,229.756927 243.780899,219.996185 243.976151,210.232712 
	C244.387909,189.640396 245.035217,169.042816 244.887848,148.452393 
	C244.761215,130.760437 244.070923,113.047981 242.878616,95.395332 
	C241.764099,78.894371 239.900452,62.431328 237.917725,46.005772 
	C236.377747,33.248249 234.146835,20.574131 232.184448,7.608089 
	C269.187683,7.608089 306.285156,7.608089 343.410614,7.608089 
	C352.152802,34.957737 360.418610,61.843609 364.992126,89.687241 
	C367.842224,107.038780 370.642487,124.408813 372.901428,141.843582 
	C374.440155,153.719254 375.371948,165.704346 375.922089,177.670517 
	C376.880341,198.511734 377.758179,219.374115 377.856720,240.231461 
	C377.926910,255.082809 376.925201,269.958160 375.921814,284.790283 
	C374.925385,299.519409 373.646271,314.245483 371.910767,328.904175 
	C369.955475,345.419006 367.462128,361.873566 365.001648,378.324249 
	C362.111786,397.645538 359.323486,416.990936 355.905243,436.221741 
	C352.384369,456.029572 348.154236,475.711243 344.241943,495.449615 
	C340.487427,514.391785 336.838745,533.355652 332.967102,552.273865 
	C328.870728,572.289917 324.465546,592.242859 320.384369,612.261902 
	C317.109497,628.325928 314.019440,644.429382 311.025360,660.548462 
	C307.612946,678.919617 304.197571,697.294556 301.166840,715.730835 
	C299.103058,728.284973 297.697937,740.947327 295.997742,753.561218 
	C294.340881,765.853149 292.428894,778.117676 291.106140,790.445435 
	C290.035614,800.422546 289.945892,810.502930 288.946625,820.490051 
	C285.955780,850.381470 285.427490,880.364014 286.163788,910.336365 
	C286.582977,927.399658 288.496490,944.436340 290.028534,961.458740 
	C291.098511,973.347473 292.157654,985.276428 294.129822,997.035095 
	C296.758514,1012.708252 299.580383,1028.412109 303.567566,1043.778931 
	C309.045380,1064.890625 315.696899,1085.697632 321.816437,1106.643677 
	C321.991943,1107.244385 321.838623,1107.941162 321.838623,1109.000000 
	C312.652130,1109.000000 303.513611,1109.000000 294.375092,1109.000000 
	C280.541992,1109.000000 266.708862,1108.978394 252.875885,1109.018677 
	C250.212601,1109.026367 248.611328,1108.918457 247.822769,1105.345215 
	C242.134354,1079.569458 235.624161,1053.970337 230.220856,1028.138306 
	C227.289413,1014.123779 225.910278,999.776367 224.029694,985.552795 
	C222.230331,971.943420 220.630051,958.306824 219.065079,944.668030 
	C218.521484,939.930725 218.213943,935.156311 218.028351,930.389893 
	C217.609467,919.632507 217.282059,908.870911 217.012421,898.108643 
	C216.630112,882.849243 216.120529,867.588379 216.071732,852.326843 
	C216.036789,841.400696 216.450668,830.460266 217.056595,819.548035 
	C217.831787,805.587280 218.739182,791.623413 220.075256,777.707458 
	C221.386871,764.046143 223.264175,750.437866 224.972076,736.816223 
	C226.596832,723.857788 228.088898,710.875916 230.079971,697.972290 
	C231.663559,687.709595 233.842438,677.535583 235.880783,667.346924 
	C239.190216,650.804626 242.451385,634.250305 246.010834,617.761108 
	C249.565460,601.294128 253.504730,584.910583 257.197083,568.472839 
	C261.848511,547.765564 266.461273,527.049377 271.013275,506.320038 
	C274.386017,490.960907 277.973145,475.637512 280.847687,460.183411 
	C283.941833,443.548615 286.339203,426.783539 288.997223,410.068451 
	C291.017456,397.364197 293.178986,384.677155 294.885681,371.929993 
	C296.233185,361.865295 297.027740,351.724945 297.989594,341.610718 
	C299.356201,327.240845 301.052795,312.886780 301.865448,298.484009 
	C302.706085,283.585083 302.605743,268.634552 303.023132,253.709579 
	C303.221649,246.611710 303.979126,239.518600 303.930695,232.427109 
	C303.846893,220.164719 303.566193,207.893295 302.937866,195.647720 
	C302.195801,181.186218 301.085266,166.741211 299.948975,152.303665 
	C299.546661,147.191635 298.598969,142.122528 297.900269,137.033829 
	C297.390869,137.045517 296.881500,137.057190 296.372131,137.068863 
	C296.372131,141.297150 296.340698,145.525879 296.400269,149.753326 
	C296.411346,150.542862 296.967590,151.326981 296.968811,152.114090 
	C297.001465,172.780319 297.204529,193.449692 296.903900,214.111618 
	C296.755554,224.307312 295.801636,234.500534 294.967255,244.674789 
	C293.773987,259.224884 292.405792,273.761261 291.016754,288.294403 
	C290.097626,297.911011 289.184875,307.533875 287.954803,317.113586 
	C286.460022,328.754761 284.838409,340.387695 282.896606,351.961212 
	C280.828125,364.290070 278.417877,376.564545 275.983215,388.828278 
	C272.382111,406.967834 268.929474,425.145050 264.859009,443.181091 
	C260.226868,463.705902 255.195312,484.147186 249.952423,504.525757 
	C243.948502,527.862366 237.394974,551.057129 231.311768,574.373962 
	C224.408203,600.835083 217.409637,627.279907 211.115387,653.888672 
	C206.226685,674.555603 202.002914,695.398193 198.147552,716.285217 
	C195.221237,732.139038 193.118256,748.157166 191.053101,764.154358 
	C188.791824,781.670776 186.780258,799.226135 185.064362,816.804016 
	C183.722397,830.551208 182.517242,844.344116 182.096222,858.142395 
	C181.124527,889.987671 180.387970,921.846252 180.130341,953.704102 
	C180.019684,967.385986 181.172821,981.089905 182.053772,994.764404 
	C182.813705,1006.560425 183.718811,1018.361328 185.066437,1030.101929 
	C187.132965,1048.105835 189.627869,1066.060669 191.954315,1084.034546 
	C192.959152,1091.797852 193.997269,1099.556885 195.066422,1107.667969 
	C173.471725,1107.667969 152.065277,1107.667969 130.132019,1107.667969 
	C127.771400,1092.285278 125.356422,1076.729736 123.004158,1061.164795 
	C120.983047,1047.791138 118.920059,1034.422119 117.099037,1021.020813 
	C116.150406,1014.039551 115.710777,1006.989929 114.994255,999.976074 
	C113.696060,987.268311 112.324028,974.567993 111.064041,961.856567 
	C110.593422,957.108704 110.266731,952.342712 110.018654,947.577515 
	C109.306221,933.891968 108.596245,920.205566 108.017632,906.513977 
	C107.277298,888.995605 106.270302,871.476196 106.074852,853.949463 
	C105.525543,804.691895 105.251488,755.430542 105.057678,706.169983 
	C105.008789,693.744141 105.617416,681.313965 106.011406,668.888550 
	C106.635735,649.199097 107.288528,629.510315 108.014839,609.824402 
	C108.612190,593.633667 109.323006,577.447083 110.003494,561.259460 
	C110.656013,545.737305 111.334427,530.216309 112.001038,514.694763 
	C112.667641,499.173248 113.372017,483.653229 113.989967,468.129791 
	C114.700653,450.276672 115.339035,432.420715 116.000183,414.565674 
	C116.343079,405.305298 116.727821,396.045929 116.985847,386.783112 
	C117.373764,372.857330 117.845024,358.930450 117.968185,345.001282 
	C118.386040,297.741943 118.736702,250.481735 118.944283,203.221115 
	C118.989334,192.962067 118.365623,182.698746 117.988953,172.439621 
	C117.710068,164.843506 117.399689,157.246902 116.933769,149.660919 
	C116.854080,148.363586 115.921783,147.118591 114.272675,146.187897 
	C114.181801,147.449860 114.026123,148.710983 114.009583,149.973938 
	C113.663567,176.400864 113.389038,202.828888 112.971916,229.254654 
	C112.809921,239.518066 112.393745,249.778946 111.985115,260.036652 
	C111.373344,275.393707 110.715698,290.749329 109.983673,306.101074 
	C109.394371,318.459595 108.715347,330.814453 107.987022,343.165680 
	C107.036537,359.284058 106.033806,375.399597 104.986977,391.512024 
	C104.037209,406.130402 103.029602,420.745209 101.989418,435.357483 
	C101.031883,448.808502 100.011017,462.255096 98.992241,475.701691 
	C98.011154,488.650818 97.002441,501.597870 95.995819,514.545044 
	C95.002098,527.326416 94.005035,540.107544 92.992340,552.887451 
	C92.005905,565.335876 90.980858,577.781311 90.003334,590.230469 
	C88.652260,607.437012 87.313103,624.644531 86.000580,641.854065 
	C84.975090,655.299927 83.969872,668.747559 83.006836,682.198059 
	C81.972527,696.643860 80.974686,711.092407 80.005112,725.542786 
	C79.299332,736.061462 78.633331,746.583008 78.007812,757.106750 
	C77.303314,768.959290 76.634171,780.814209 76.004425,792.670959 
	C75.304054,805.857361 74.546844,819.042297 74.027794,832.236267 
	C73.253433,851.920166 72.655373,871.611023 72.003113,891.299622 
	C71.646645,902.059570 71.303520,912.820129 71.007500,923.581787 
	C70.642754,936.841614 70.017670,950.104126 70.068481,963.363342 
	C70.162102,987.791382 70.505257,1012.221558 71.057320,1036.643677 
	C71.423401,1052.838623 72.259506,1069.024902 73.034210,1085.207886 
	C73.386780,1092.572632 74.099915,1099.920166 74.668098,1107.524292 
	C50.544708,1108.013672 26.235168,1108.506836 1.462814,1109.000000 
	C1.000000,1107.933350 1.000000,1106.866577 1.395198,1105.211304 
	C1.860264,1099.862793 2.067125,1095.099731 1.951384,1090.344360 
	C1.875429,1087.223633 1.333337,1084.114380 1.000002,1081.000000 
	C1.000000,1080.555542 1.000000,1080.111084 1.000000,1079.333252 
z"/>
<path fill="#D5BA29" opacity="1.000000" stroke="none" 
	d="
M851.531372,0.999994 
	C858.638000,2.331848 865.356812,3.353095 871.898804,5.054197 
	C891.033508,10.029724 908.794434,17.945044 922.732300,32.381355 
	C936.750610,46.901005 945.261597,64.701096 948.783875,84.366280 
	C951.814819,101.288063 953.182068,118.521362 954.948608,135.651596 
	C956.249207,148.263290 957.087158,160.925262 957.982605,173.575363 
	C958.763428,184.607407 959.465088,195.648254 959.971130,206.695786 
	C960.751343,223.730774 961.439758,240.771530 961.970215,257.815979 
	C962.450378,273.247864 962.860718,288.686676 962.965881,304.124725 
	C963.382202,365.225403 963.622131,426.327271 964.035950,487.427979 
	C964.123596,500.366211 964.537903,513.306396 965.038879,526.236511 
	C965.537903,539.116699 966.034363,552.009705 967.076538,564.852905 
	C968.418579,581.393005 970.280273,597.891479 971.960388,614.403564 
	C973.274170,627.314209 974.496826,640.237061 976.048035,653.119751 
	C977.437622,664.660583 979.311584,676.142334 980.801147,687.672241 
	C981.999939,696.951294 982.901672,706.268372 984.011841,715.559448 
	C985.256653,725.977173 986.625488,736.380127 987.862061,746.798828 
	C988.346985,750.885193 988.722473,754.990601 988.965454,759.098145 
	C989.385437,766.196472 989.739258,773.300598 989.982727,780.407043 
	C990.380188,792.008179 991.303833,803.636902 990.870361,815.211487 
	C989.899048,841.146179 987.130737,866.841797 978.230225,891.535950 
	C970.432678,913.169800 959.624695,932.890564 944.358337,950.277283 
	C921.127380,976.734558 891.869507,992.372070 857.722900,998.805054 
	C843.893372,1001.410400 829.614319,1002.838684 815.554016,1002.741943 
	C790.996460,1002.572937 767.110840,997.769409 744.322144,988.112671 
	C725.302734,980.053284 708.029602,969.403564 692.265930,955.971924 
	C677.106018,943.054749 664.578369,928.047485 656.338074,910.133423 
	C650.860962,898.226562 647.727844,885.187805 644.100891,872.497009 
	C639.500610,856.400513 636.335510,840.003479 635.984314,823.172607 
	C635.679565,808.569092 634.103210,793.867188 635.276794,779.385986 
	C637.235046,755.223083 640.252563,731.091431 644.094055,707.150391 
	C648.335571,680.716431 653.712219,654.450684 659.153564,628.227722 
	C663.129272,609.068237 668.141174,590.126221 672.455200,571.033936 
	C678.424622,544.615601 684.210327,518.155457 689.999573,491.696808 
	C692.999573,477.986298 696.083862,464.286774 698.681396,450.497803 
	C701.405029,436.039124 703.669861,421.491791 705.989502,406.959930 
	C708.078857,393.871307 710.232544,380.783752 711.870483,367.635010 
	C713.272949,356.376587 714.238586,345.048004 714.945740,333.722229 
	C716.150513,314.425446 717.499695,295.116577 717.891541,275.794647 
	C718.606628,240.533401 718.507874,205.256348 719.068054,169.990967 
	C719.341553,152.778000 719.712585,135.524170 721.156006,118.382835 
	C723.012878,96.331421 726.366455,74.454796 737.145508,54.569832 
	C750.303284,30.296732 769.193420,12.883442 796.478638,5.847446 
	C803.102478,4.139368 809.894287,3.082418 816.804443,1.363038 
	C828.354248,1.000000 839.708435,1.000000 851.531372,0.999994 
M893.906189,730.867554 
	C893.606323,729.764160 893.082153,728.668884 893.041504,727.556030 
	C892.647888,716.788757 892.363647,706.017517 891.991028,695.249390 
	C891.704773,686.978149 891.299866,678.710999 891.012268,670.439819 
	C890.321289,650.568298 889.664246,630.695496 889.001648,610.822998 
	C888.659302,600.553833 888.270813,590.285645 888.016541,580.014221 
	C887.626282,564.246704 887.010620,548.475586 887.065674,532.708008 
	C887.189453,497.273560 887.622192,461.839844 888.035278,426.407043 
	C888.123901,418.801147 888.645081,411.199738 888.996399,403.597565 
	C889.652954,389.390839 890.265869,375.181702 891.021606,360.980164 
	C891.574036,350.601196 892.309143,340.231720 892.992981,329.859985 
	C893.980530,314.882904 895.001465,299.907990 895.996765,284.931396 
	C897.003113,269.788971 898.187744,254.655228 898.944092,239.500214 
	C899.827271,221.805069 900.472534,204.094589 900.922424,186.383179 
	C901.077148,180.292374 900.041016,174.178009 900.056396,168.075684 
	C900.098022,151.544983 898.307922,135.247772 893.903809,119.324799 
	C890.157166,105.778763 884.041626,93.209824 871.304749,86.216972 
	C863.760925,82.075241 854.944458,79.944153 846.463013,77.886795 
	C832.159241,74.417084 818.936035,82.065575 812.167358,93.600067 
	C803.995789,107.525497 803.140381,123.216377 802.117188,138.740723 
	C801.729126,144.629700 803.141846,150.624420 802.913391,156.539261 
	C802.135254,176.690125 801.076721,196.831665 799.942993,216.966507 
	C799.527100,224.353043 798.703186,231.722092 797.886597,239.079269 
	C796.674622,249.999298 795.252808,260.895905 794.015320,271.813263 
	C792.905090,281.607574 792.057556,291.433014 790.850403,301.214630 
	C789.366028,313.242432 787.543396,325.228302 786.028503,337.252625 
	C784.858643,346.538330 784.088501,355.875244 782.870544,365.153931 
	C781.038147,379.113647 778.878723,393.030304 777.030029,406.987976 
	C775.522217,418.372131 774.355164,429.801178 772.873535,441.189056 
	C771.352661,452.878021 769.533936,464.528442 768.029053,476.219330 
	C766.541626,487.773926 765.372253,499.369354 763.900330,510.926117 
	C762.369080,522.948425 760.532715,534.932190 759.036560,546.958496 
	C757.840393,556.574036 757.064819,566.241577 755.903442,575.862000 
	C754.371521,588.552002 752.478638,601.199829 751.051941,613.900696 
	C749.803711,625.013367 749.079224,636.183838 747.954651,647.311768 
	C746.386108,662.833984 744.519287,678.327087 743.046021,693.857788 
	C741.832825,706.646729 740.799866,719.460449 740.061890,732.284729 
	C739.168396,747.811218 738.100952,763.362122 738.145752,778.899414 
	C738.200134,797.772583 738.609192,816.708069 740.298218,835.487671 
	C741.203125,845.548828 744.058716,855.780823 747.959717,865.132446 
	C752.164490,875.212219 760.445801,882.690857 769.012939,889.587463 
	C784.601257,902.136169 802.546692,908.512695 822.244690,909.900696 
	C835.542419,910.837646 848.407593,907.915588 860.591858,902.647034 
	C870.338684,898.432312 879.357422,893.241089 884.128418,882.776428 
	C889.805054,870.325500 891.616211,857.017639 892.823853,843.720337 
	C894.214050,828.413269 894.808228,812.993042 894.885803,797.617554 
	C894.996460,775.684814 894.322998,753.748108 893.906189,730.867554 
z"/>
<path fill="#108241" opacity="1.000000" stroke="none" 
	d="
M731.468628,1111.000000 
	C725.583557,1110.333374 720.168640,1109.101074 714.750488,1109.087280 
	C659.251770,1108.944702 603.752441,1108.950439 548.253784,1109.101929 
	C544.176453,1109.113037 542.305176,1107.798828 540.507141,1104.197388 
	C523.749878,1070.633179 511.090240,1035.534424 502.267334,999.164612 
	C498.025665,981.679504 495.441498,963.726318 493.161743,945.850525 
	C491.044830,929.251465 490.056335,912.489380 489.086761,895.769165 
	C488.319305,882.534790 487.666351,869.230103 488.161865,856.001526 
	C488.844635,837.773865 490.505859,819.575745 492.037415,801.389343 
	C493.108429,788.671631 494.341339,775.950012 496.089874,763.311523 
	C497.982819,749.629028 500.423187,736.016724 502.871399,722.418152 
	C505.775238,706.288757 508.812469,690.180664 512.034241,674.111877 
	C514.868225,659.977295 517.802979,645.854736 521.105652,631.823975 
	C527.924866,602.853333 535.018799,573.947327 541.999756,545.014771 
	C547.273499,523.157532 552.869690,501.371796 557.735291,479.424103 
	C563.171692,454.901672 568.213379,430.283478 572.922119,405.610626 
	C576.669373,385.975861 579.982422,366.243652 582.869080,346.464355 
	C584.806641,333.188873 585.362793,319.717255 587.063904,306.400665 
	C590.815552,277.031433 590.337402,247.526352 589.813477,218.063690 
	C589.539856,202.677490 587.390137,187.320724 585.993164,171.959274 
	C583.380676,143.231201 576.828003,115.263283 568.798828,87.669868 
	C561.110535,61.247684 550.663696,35.829456 538.598267,11.089553 
	C538.257996,10.391747 538.133728,9.588593 537.764160,8.350090 
	C539.309387,8.214364 540.529175,8.016779 541.749329,8.014156 
	C552.915833,7.990152 564.084229,8.128777 575.248169,7.960826 
	C584.843994,7.816467 594.432861,7.184149 604.028442,7.066558 
	C608.444946,7.012436 612.912048,7.424100 617.266724,8.156719 
	C618.628174,8.385760 620.219971,10.135643 620.817627,11.561784 
	C626.186279,24.372295 631.940002,37.065796 636.439758,50.184971 
	C642.249207,67.122574 647.587708,84.271393 652.044800,101.608002 
	C655.832520,116.341171 658.541382,131.398056 660.889221,146.442535 
	C663.431763,162.734390 665.549194,179.135132 666.833801,195.567978 
	C667.956665,209.932495 667.923462,224.407425 667.926758,238.833694 
	C667.929993,252.926498 667.830994,267.053589 666.867371,281.103271 
	C665.781555,296.934906 663.820312,312.713257 661.980591,328.484528 
	C660.146423,344.207886 658.349915,359.950562 655.877502,375.580444 
	C653.317017,391.766876 650.173889,407.870605 646.903198,423.932678 
	C643.154968,442.339722 639.158142,460.700592 634.953918,479.009094 
	C630.247559,499.504242 625.154846,519.910339 620.289734,540.369385 
	C613.177734,570.277405 605.904175,600.149414 599.105591,630.128906 
	C593.767395,653.668274 588.715942,677.283997 584.158447,700.985291 
	C580.903870,717.910645 578.567383,735.017456 576.028931,752.074158 
	C573.868530,766.590942 571.721863,781.120544 570.105225,795.703857 
	C568.945251,806.167236 568.467712,816.720520 568.042542,827.248169 
	C567.227661,847.427917 565.942078,867.628113 566.223694,887.800659 
	C566.459412,904.685303 568.153687,921.600525 570.110413,938.396362 
	C572.181091,956.170654 574.842773,973.910706 578.155518,991.494446 
	C580.726257,1005.139526 584.711670,1018.517151 588.029907,1032.023071 
	C588.743286,1034.926758 590.751831,1035.047729 593.240173,1035.042114 
	C622.239502,1034.976318 651.239807,1034.869873 680.238403,1035.036255 
	C709.665283,1035.205322 739.090759,1035.650879 768.516479,1036.005127 
	C794.276184,1036.315186 820.034973,1036.697266 845.794800,1036.992310 
	C877.720398,1037.357910 909.647156,1037.622803 941.572388,1038.016113 
	C961.666260,1038.263550 981.757568,1038.718140 1001.851624,1038.947388 
	C1005.059998,1038.984009 1008.276367,1038.322876 1012.212830,1037.907959 
	C1012.212830,1041.742065 1012.212830,1045.190552 1012.606445,1048.819580 
	C1013.000000,1058.354248 1013.000000,1067.708496 1012.602844,1077.717041 
	C1012.137146,1089.247681 1012.068542,1100.123779 1012.000000,1111.000000 
	C947.979126,1111.000000 883.958191,1111.000000 819.282959,1110.602783 
	C800.739197,1110.139038 782.849854,1110.061890 764.960388,1110.047852 
	C764.307190,1110.047363 763.653503,1110.668579 763.000000,1111.000000 
	C752.645752,1111.000000 742.291565,1111.000000 731.468628,1111.000000 
z"/>
<path fill="#FFFFFF" opacity="1.000000" stroke="none" 
	d="
M763.468628,1111.000000 
	C763.653503,1110.668579 764.307190,1110.047363 764.960388,1110.047852 
	C782.849854,1110.061890 800.739197,1110.139038 818.814331,1110.602783 
	C800.645752,1111.000000 782.291565,1111.000000 763.468628,1111.000000 
z"/>
<path fill="#FFFFFF" opacity="1.000000" stroke="none" 
	d="
M1012.500000,1111.000000 
	C1012.068542,1100.123779 1012.137146,1089.247681 1012.602844,1078.185791 
	C1013.000000,1089.000000 1013.000000,1100.000000 1012.500000,1111.000000 
z"/>
<path fill="#FFFFFF" opacity="1.000000" stroke="none" 
	d="
M1.000002,1081.468628 
	C1.333337,1084.114380 1.875429,1087.223633 1.951384,1090.344360 
	C2.067125,1095.099731 1.860264,1099.862793 1.395198,1104.811279 
	C1.000000,1097.312378 1.000000,1089.624878 1.000002,1081.468628 
z"/>
<path fill="#303E99" opacity="1.000000" stroke="none" 
	d="
M368.033142,1097.900391 
	C361.776367,1077.237061 354.889038,1057.147705 349.541931,1036.656250 
	C345.366974,1020.656616 342.543701,1004.239990 340.142883,987.858765 
	C337.486267,969.732178 335.189362,951.479065 334.187653,933.201416 
	C332.763855,907.222290 332.169434,881.170288 332.183990,855.150024 
	C332.192932,839.198486 333.559509,823.204346 335.119598,807.308167 
	C336.954895,788.607605 339.316437,769.941406 342.071930,751.352539 
	C345.724213,726.713806 349.630646,702.101257 354.072205,677.594238 
	C358.559967,652.832275 363.774780,628.200745 368.782654,603.534790 
	C373.110138,582.219971 377.510590,560.919128 382.033813,539.645081 
	C386.149567,520.287292 390.672241,501.014496 394.645569,481.628387 
	C398.038940,465.071808 400.910889,448.408203 404.006439,431.790649 
	C406.655731,417.568634 409.555023,403.386719 411.861237,389.109161 
	C413.917725,376.377716 415.353424,363.544678 416.989960,350.747131 
	C418.690094,337.452576 420.338806,324.151093 421.931519,310.843292 
	C422.419495,306.766022 422.792572,302.664124 422.971588,298.562744 
	C423.699829,281.876709 424.344818,265.186981 424.995117,248.497620 
	C425.355957,239.237671 426.093048,229.966980 425.902740,220.716721 
	C425.596893,205.853409 425.218353,190.951859 423.856262,176.159882 
	C422.088074,156.958527 420.230408,137.682846 416.756653,118.742615 
	C412.666199,96.439819 407.275574,74.338943 401.546570,52.385956 
	C397.677460,37.559853 392.249023,23.140682 387.419739,8.236034 
	C388.609467,8.165967 390.018311,8.011449 391.427246,8.010636 
	C416.756775,7.996037 442.086548,8.052238 467.415497,7.930480 
	C470.406952,7.916100 472.006653,8.593343 473.308350,11.529145 
	C483.566589,34.665230 492.611572,58.229313 499.008453,82.745758 
	C502.362030,95.598495 505.897919,108.425270 508.598602,121.420227 
	C510.949615,132.732651 512.667419,144.219284 513.901733,155.710922 
	C515.638062,171.875443 517.095459,188.094986 517.885437,204.329285 
	C518.732178,221.730728 519.166321,239.185654 518.848633,256.600250 
	C518.572510,271.731018 517.482544,286.889984 515.875549,301.942902 
	C513.673767,322.566803 511.395172,343.235016 507.789856,363.644073 
	C502.509064,393.538025 496.653076,423.362793 489.903107,452.957184 
	C479.884430,496.882904 468.791687,540.562744 458.305389,584.382935 
	C451.400818,613.235962 444.426239,642.079285 438.106537,671.062927 
	C433.228363,693.435425 428.977966,715.960388 425.086121,738.527527 
	C421.899780,757.003845 419.478638,775.619507 417.059479,794.217773 
	C415.685181,804.783325 414.488617,815.419434 414.099274,826.056274 
	C413.128967,852.565613 412.084930,879.096680 412.225861,905.612793 
	C412.305817,920.662354 413.984131,935.798279 416.154602,950.718994 
	C419.171936,971.461304 422.659760,992.185059 427.167053,1012.647766 
	C432.466003,1036.704712 440.442047,1060.026245 449.972046,1082.773560 
	C453.535156,1091.278442 457.206573,1099.737915 461.059631,1108.758911 
	C459.161194,1108.844727 457.442078,1108.989014 455.722870,1108.989990 
	C430.226715,1109.004517 404.728394,1108.827271 379.236145,1109.143188 
	C374.034241,1109.207764 370.847534,1108.255371 369.907928,1102.787476 
	C369.640686,1101.232300 368.698792,1099.793213 368.033142,1097.900391 
z"/>
<path fill="#FFFFFF" opacity="1.000000" stroke="none" 
	d="
M893.945312,731.340332 
	C894.322998,753.748108 894.996460,775.684814 894.885803,797.617554 
	C894.808228,812.993042 894.214050,828.413269 892.823853,843.720337 
	C891.616211,857.017639 889.805054,870.325500 884.128418,882.776428 
	C879.357422,893.241089 870.338684,898.432312 860.591858,902.647034 
	C848.407593,907.915588 835.542419,910.837646 822.244690,909.900696 
	C802.546692,908.512695 784.601257,902.136169 769.012939,889.587463 
	C760.445801,882.690857 752.164490,875.212219 747.959717,865.132446 
	C744.058716,855.780823 741.203125,845.548828 740.298218,835.487671 
	C738.609192,816.708069 738.200134,797.772583 738.145752,778.899414 
	C738.100952,763.362122 739.168396,747.811218 740.061890,732.284729 
	C740.799866,719.460449 741.832825,706.646729 743.046021,693.857788 
	C744.519287,678.327087 746.386108,662.833984 747.954651,647.311768 
	C749.079224,636.183838 749.803711,625.013367 751.051941,613.900696 
	C752.478638,601.199829 754.371521,588.552002 755.903442,575.862000 
	C757.064819,566.241577 757.840393,556.574036 759.036560,546.958496 
	C760.532715,534.932190 762.369080,522.948425 763.900330,510.926117 
	C765.372253,499.369354 766.541626,487.773926 768.029053,476.219330 
	C769.533936,464.528442 771.352661,452.878021 772.873535,441.189056 
	C774.355164,429.801178 775.522217,418.372131 777.030029,406.987976 
	C778.878723,393.030304 781.038147,379.113647 782.870544,365.153931 
	C784.088501,355.875244 784.858643,346.538330 786.028503,337.252625 
	C787.543396,325.228302 789.366028,313.242432 790.850403,301.214630 
	C792.057556,291.433014 792.905090,281.607574 794.015320,271.813263 
	C795.252808,260.895905 796.674622,249.999298 797.886597,239.079269 
	C798.703186,231.722092 799.527100,224.353043 799.942993,216.966507 
	C801.076721,196.831665 802.135254,176.690125 802.913391,156.539261 
	C803.141846,150.624420 801.729126,144.629700 802.117188,138.740723 
	C803.140381,123.216377 803.995789,107.525497 812.167358,93.600067 
	C818.936035,82.065575 832.159241,74.417084 846.463013,77.886795 
	C854.944458,79.944153 863.760925,82.075241 871.304749,86.216972 
	C884.041626,93.209824 890.157166,105.778763 893.903809,119.324799 
	C898.307922,135.247772 900.098022,151.544983 900.056396,168.075684 
	C900.041016,174.178009 901.077148,180.292374 900.922424,186.383179 
	C900.472534,204.094589 899.827271,221.805069 898.944092,239.500214 
	C898.187744,254.655228 897.003113,269.788971 895.996765,284.931396 
	C895.001465,299.907990 893.980530,314.882904 892.992981,329.859985 
	C892.309143,340.231720 891.574036,350.601196 891.021606,360.980164 
	C890.265869,375.181702 889.652954,389.390839 888.996399,403.597565 
	C888.645081,411.199738 888.123901,418.801147 888.035278,426.407043 
	C887.622192,461.839844 887.189453,497.273560 887.065674,532.708008 
	C887.010620,548.475586 887.626282,564.246704 888.016541,580.014221 
	C888.270813,590.285645 888.659302,600.553833 889.001648,610.822998 
	C889.664246,630.695496 890.321289,650.568298 891.012268,670.439819 
	C891.299866,678.710999 891.704773,686.978149 891.991028,695.249390 
	C892.363647,706.017517 892.647888,716.788757 893.041504,727.556030 
	C893.082153,728.668884 893.606323,729.764160 893.945312,731.340332 
z"/>
</svg>